<svg xmlns="http://www.w3.org/2000/svg" width="279.687" height="54.741" viewBox="0 0 279.687 54.741">
  <defs>
    <style>
      .a{fill:#24cb71;}
      .b{fill:#1C1C1C;}
    </style>
  </defs>
  <g transform="translate(-194.548 -4434.119)">
    <path class="a" d="M231.115,4434.32a28.785,28.785,0,0,0-25.53,16.2c-.015.027-.027.052-.039.079s-.027.052-.04.081a28.556,28.556,0,0,0-2.5,8.188h49.178v-20.076a4.67,4.67,0,0,0-4.727-4.67Zm12.621,16.357H214.887a.579.579,0,0,1,.058-.081c.018-.027.039-.052.06-.079a19.264,19.264,0,0,1,1.722-2,20.6,20.6,0,0,1,14.483-6.156l2.732-.033,9.794-.124Z"/>
    <rect class="a" width="66.099" height="8.278" rx="4.139" transform="translate(194.548 4450.633)"/>
    <path class="a" d="M224.079,4488.659a28.783,28.783,0,0,0,25.53-16.2c.015-.027.027-.051.04-.078s.027-.052.039-.081a28.524,28.524,0,0,0,2.5-8.189H203.008v20.077a4.67,4.67,0,0,0,4.728,4.669ZM211.458,4472.3h28.849a.555.555,0,0,1-.058.081c-.018.027-.039.051-.06.078a19.052,19.052,0,0,1-1.721,2,20.6,20.6,0,0,1-14.484,6.157l-2.732.033-9.794.124Z"/>
    <rect class="a" width="66.099" height="8.278" rx="4.139" transform="translate(194.548 4464.068)"/>
    <path class="b" d="M309.077,4461.183c0,9.348-4.03,16.289-11.364,18.248a32.926,32.926,0,0,1-8.06.784h-9.088a3.73,3.73,0,0,1-3.73-3.731v-30.247c0-2.631,1.287-4.03,3.918-4.086h10.971C303.815,4442.151,309.077,4449.036,309.077,4461.183Zm-17.353-12.371H284.5v24.517h6.214c7.724,0,10.412-4.142,10.412-12.146C301.129,4453.57,298.777,4448.812,291.724,4448.812Z"/>
    <path class="b" d="M339.369,4465.52c0,10.188-4.534,15.337-13.49,15.337s-13.435-5.149-13.435-15.337c0-10.3,4.479-15.394,13.435-15.394S339.369,4455.221,339.369,4465.52Zm-19.368,0c.056,5.766,2.015,8.676,5.822,8.676s5.709-3.023,5.765-8.9c0-5.765-1.9-8.62-5.709-8.62C321.961,4456.676,320,4459.642,320,4465.52Z"/>
    <path class="b" d="M350.4,4445.76v34.426h-7.445v-38.064h3.862A3.657,3.657,0,0,1,350.4,4445.76Z"/>
    <path class="b" d="M363.167,4445.76v34.426h-7.445v-38.064h3.862A3.657,3.657,0,0,1,363.167,4445.76Z"/>
    <path class="b" d="M375.036,4458.3h-7.445c.9-5.486,4.759-8.173,11.588-8.173,8.172,0,12.314,2.687,12.482,8.173v10.076c0,8.172-4.926,11.811-12.93,12.37-7.109.56-12.036-2.743-12.036-9.292.169-7.109,5.319-9.011,12.82-9.739,3.19-.392,4.813-1.344,4.813-2.967-.167-1.679-1.735-2.519-4.813-2.519C376.883,4456.228,375.428,4456.9,375.036,4458.3Zm9.486,9.744a11.37,11.37,0,0,0-.092-2.7,15.467,15.467,0,0,1-2.8.958c-1.288.343-2.609.552-3.89.923a7.4,7.4,0,0,0-2.02.866c-2.15,1.415-2.321,4.9.09,6.182a4.65,4.65,0,0,0,2.312.454,6.153,6.153,0,0,0,5.814-3.975A10.186,10.186,0,0,0,384.522,4468.043Z"/>
    <path class="b" d="M395.25,4464.9c.223-9.572,5.317-14.329,15.225-14.329h1.063v5.2a2.519,2.519,0,0,1-2.519,2.519h0c-4.142,0-6.213,2.183-6.213,6.493v15.394H395.25Z"/>
    <path class="b" d="M432.422,4466.64h-9.628v13.546h-7.781v-33.978a4.039,4.039,0,0,1,3.919-4.086h12.93c8.06,0,12.258,4.31,12.258,12.259C444.12,4461.881,440.035,4466.64,432.422,4466.64Zm-1.96-6.886c3.918.056,5.878-1.791,5.878-5.486s-1.848-5.541-5.486-5.541H422.9v11.027Z"/>
    <path class="b" d="M460.81,4480.857c-8.957-.279-13.435-5.486-13.435-15.561s4.535-15.113,13.546-15.17c9.4,0,13.827,5.766,13.266,17.353H455.044c.28,4.534,2.238,6.829,5.877,6.829a6.877,6.877,0,0,0,4.814-2.127,3.262,3.262,0,0,1,2.519-1.064h5.486C472.116,4477.387,468.086,4480.857,460.81,4480.857Zm-5.655-18.7H466.3c-.448-3.918-2.3-5.933-5.485-5.933S455.716,4458.243,455.155,4462.161Z"/>
  </g>
</svg>